<mxfile host="app.diagrams.net" modified="2020-10-20T14:01:44.393Z" agent="5.0 (X11; Linux x86_64) AppleWebKit/537.36 (KHTML, like Gecko) Chrome/86.0.4240.75 Safari/537.36" etag="mCSns5A7D54kOb9gaQcq" version="13.8.1" type="github">
  <diagram id="2RpqLSvx9xuu1dzIBI79" name="Page-1">
    <mxGraphModel dx="862" dy="461" grid="1" gridSize="10" guides="1" tooltips="1" connect="1" arrows="1" fold="1" page="1" pageScale="1" pageWidth="827" pageHeight="1169" math="0" shadow="0">
      <root>
        <mxCell id="0" />
        <mxCell id="1" parent="0" />
        <mxCell id="vdvvtg2PDydRFT4RrtTh-72" value="" style="rounded=1;arcSize=10;dashed=1;strokeColor=#000000;fillColor=none;gradientColor=none;dashPattern=8 3 1 3;strokeWidth=2;" parent="1" vertex="1">
          <mxGeometry x="520" y="180" width="280" height="180" as="geometry" />
        </mxCell>
        <mxCell id="vdvvtg2PDydRFT4RrtTh-14" value="Cliente" style="swimlane;startSize=20;horizontal=0;" parent="1" vertex="1">
          <mxGeometry x="250" y="60" width="2170" height="100" as="geometry" />
        </mxCell>
        <mxCell id="vdvvtg2PDydRFT4RrtTh-15" value="" style="startArrow=oval;startFill=0;startSize=7;endArrow=block;endFill=0;endSize=10;dashed=1;html=1;" parent="1" target="vdvvtg2PDydRFT4RrtTh-16" edge="1">
          <mxGeometry width="100" relative="1" as="geometry">
            <mxPoint x="364" y="160" as="sourcePoint" />
            <mxPoint x="270" y="320" as="targetPoint" />
          </mxGeometry>
        </mxCell>
        <mxCell id="vdvvtg2PDydRFT4RrtTh-17" value="Pedido via telefone" style="text;html=1;strokeColor=none;fillColor=none;align=center;verticalAlign=middle;whiteSpace=wrap;rounded=0;" parent="1" vertex="1">
          <mxGeometry x="370" y="200" width="50" height="20" as="geometry" />
        </mxCell>
        <mxCell id="vdvvtg2PDydRFT4RrtTh-68" value="" style="startArrow=oval;startFill=0;startSize=7;endArrow=block;endFill=0;endSize=10;dashed=1;html=1;entryX=0.5;entryY=0;entryDx=0;entryDy=0;" parent="1" target="vdvvtg2PDydRFT4RrtTh-65" edge="1">
          <mxGeometry width="100" relative="1" as="geometry">
            <mxPoint x="690" y="160" as="sourcePoint" />
            <mxPoint x="660" y="190" as="targetPoint" />
          </mxGeometry>
        </mxCell>
        <mxCell id="vdvvtg2PDydRFT4RrtTh-69" value="Fornecer os dados para cadastro" style="text;html=1;strokeColor=none;fillColor=none;align=center;verticalAlign=middle;whiteSpace=wrap;rounded=0;" parent="1" vertex="1">
          <mxGeometry x="550" y="195" width="130" height="50" as="geometry" />
        </mxCell>
        <mxCell id="vdvvtg2PDydRFT4RrtTh-74" style="edgeStyle=orthogonalEdgeStyle;rounded=0;orthogonalLoop=1;jettySize=auto;html=1;entryX=1;entryY=0.25;entryDx=0;entryDy=0;" parent="1" source="vdvvtg2PDydRFT4RrtTh-73" target="vdvvtg2PDydRFT4RrtTh-72" edge="1">
          <mxGeometry relative="1" as="geometry" />
        </mxCell>
        <mxCell id="vdvvtg2PDydRFT4RrtTh-73" value="" style="html=1;shape=mxgraph.flowchart.annotation_2;align=left;labelPosition=right;" parent="1" vertex="1">
          <mxGeometry x="860" y="180" width="50" height="80" as="geometry" />
        </mxCell>
        <mxCell id="vdvvtg2PDydRFT4RrtTh-75" value="&lt;font style=&quot;vertical-align: inherit&quot;&gt;&lt;font style=&quot;vertical-align: inherit&quot;&gt;Cadastro do cliente onde são pedidos os dados que são inseridos e salvos no sistema&lt;/font&gt;&lt;/font&gt;" style="text;html=1;strokeColor=none;fillColor=none;align=center;verticalAlign=middle;whiteSpace=wrap;rounded=0;" parent="1" vertex="1">
          <mxGeometry x="890" y="185" width="170" height="65" as="geometry" />
        </mxCell>
        <mxCell id="vdvvtg2PDydRFT4RrtTh-10" value="Atendimento Pizzaria" style="swimlane;html=1;childLayout=stackLayout;resizeParent=1;resizeParentMax=0;horizontal=0;startSize=20;horizontalStack=0;" parent="1" vertex="1">
          <mxGeometry x="240" y="270" width="2230" height="780" as="geometry" />
        </mxCell>
        <mxCell id="vdvvtg2PDydRFT4RrtTh-11" value="Atendente" style="swimlane;html=1;startSize=20;horizontal=0;" parent="vdvvtg2PDydRFT4RrtTh-10" vertex="1">
          <mxGeometry x="20" width="2210" height="140" as="geometry" />
        </mxCell>
        <mxCell id="vdvvtg2PDydRFT4RrtTh-21" style="edgeStyle=orthogonalEdgeStyle;rounded=0;orthogonalLoop=1;jettySize=auto;html=1;entryX=0;entryY=0.5;entryDx=0;entryDy=0;" parent="vdvvtg2PDydRFT4RrtTh-11" source="vdvvtg2PDydRFT4RrtTh-16" target="vdvvtg2PDydRFT4RrtTh-20" edge="1">
          <mxGeometry relative="1" as="geometry">
            <mxPoint x="290" y="45" as="sourcePoint" />
          </mxGeometry>
        </mxCell>
        <mxCell id="vdvvtg2PDydRFT4RrtTh-22" value="É cadastrado?" style="text;html=1;strokeColor=none;fillColor=none;align=center;verticalAlign=middle;whiteSpace=wrap;rounded=0;" parent="vdvvtg2PDydRFT4RrtTh-11" vertex="1">
          <mxGeometry x="181.5" y="10" width="85" height="20" as="geometry" />
        </mxCell>
        <mxCell id="vdvvtg2PDydRFT4RrtTh-67" style="edgeStyle=orthogonalEdgeStyle;rounded=0;orthogonalLoop=1;jettySize=auto;html=1;entryX=1;entryY=0.75;entryDx=0;entryDy=0;" parent="vdvvtg2PDydRFT4RrtTh-11" source="vdvvtg2PDydRFT4RrtTh-65" target="vdvvtg2PDydRFT4RrtTh-24" edge="1">
          <mxGeometry relative="1" as="geometry">
            <Array as="points">
              <mxPoint x="410" y="70" />
              <mxPoint x="307" y="70" />
              <mxPoint x="307" y="99" />
            </Array>
          </mxGeometry>
        </mxCell>
        <mxCell id="vdvvtg2PDydRFT4RrtTh-66" style="edgeStyle=orthogonalEdgeStyle;rounded=0;orthogonalLoop=1;jettySize=auto;html=1;" parent="vdvvtg2PDydRFT4RrtTh-11" source="vdvvtg2PDydRFT4RrtTh-20" target="vdvvtg2PDydRFT4RrtTh-65" edge="1">
          <mxGeometry relative="1" as="geometry" />
        </mxCell>
        <mxCell id="vdvvtg2PDydRFT4RrtTh-65" value="Cadastrar Cliente" style="rounded=1;whiteSpace=wrap;html=1;" parent="vdvvtg2PDydRFT4RrtTh-11" vertex="1">
          <mxGeometry x="350" y="20" width="160" height="40" as="geometry" />
        </mxCell>
        <mxCell id="vdvvtg2PDydRFT4RrtTh-20" value="" style="shape=mxgraph.bpmn.shape;html=1;verticalLabelPosition=bottom;labelBackgroundColor=#ffffff;verticalAlign=top;align=center;perimeter=rhombusPerimeter;background=gateway;outlineConnect=0;outline=none;symbol=exclusiveGw;fillColor=#fff2cc;strokeColor=#d6b656;" parent="vdvvtg2PDydRFT4RrtTh-11" vertex="1">
          <mxGeometry x="209" y="30" width="30" height="30" as="geometry" />
        </mxCell>
        <mxCell id="vdvvtg2PDydRFT4RrtTh-16" value="" style="shape=mxgraph.bpmn.shape;html=1;verticalLabelPosition=bottom;labelBackgroundColor=#ffffff;verticalAlign=top;align=center;perimeter=ellipsePerimeter;outlineConnect=0;outline=standard;symbol=message;fillColor=#d5e8d4;strokeColor=#82b366;" parent="vdvvtg2PDydRFT4RrtTh-11" vertex="1">
          <mxGeometry x="89.99999999999989" y="30" width="30" height="30" as="geometry" />
        </mxCell>
        <mxCell id="vdvvtg2PDydRFT4RrtTh-23" style="edgeStyle=orthogonalEdgeStyle;rounded=0;orthogonalLoop=1;jettySize=auto;html=1;" parent="vdvvtg2PDydRFT4RrtTh-11" source="vdvvtg2PDydRFT4RrtTh-20" target="vdvvtg2PDydRFT4RrtTh-24" edge="1">
          <mxGeometry relative="1" as="geometry">
            <mxPoint x="350" y="45" as="targetPoint" />
          </mxGeometry>
        </mxCell>
        <mxCell id="vdvvtg2PDydRFT4RrtTh-24" value="Cadastra pedido" style="shape=ext;rounded=1;html=1;whiteSpace=wrap;" parent="vdvvtg2PDydRFT4RrtTh-11" vertex="1">
          <mxGeometry x="164" y="80" width="120" height="25" as="geometry" />
        </mxCell>
        <mxCell id="vdvvtg2PDydRFT4RrtTh-12" value="Cozinheiro" style="swimlane;html=1;startSize=20;horizontal=0;" parent="vdvvtg2PDydRFT4RrtTh-10" vertex="1">
          <mxGeometry x="20" y="140" width="2210" height="210" as="geometry" />
        </mxCell>
        <mxCell id="Lkvbgb88_iQK6pIqarr5-27" value="" style="rounded=1;whiteSpace=wrap;html=1;" parent="vdvvtg2PDydRFT4RrtTh-12" vertex="1">
          <mxGeometry x="250" y="10" width="800" height="170" as="geometry" />
        </mxCell>
        <mxCell id="Lkvbgb88_iQK6pIqarr5-32" value="" style="ellipse;whiteSpace=wrap;html=1;aspect=fixed;" parent="vdvvtg2PDydRFT4RrtTh-12" vertex="1">
          <mxGeometry x="1020" y="20" width="10" height="10" as="geometry" />
        </mxCell>
        <mxCell id="vdvvtg2PDydRFT4RrtTh-25" value="Montar Pizza" style="shape=ext;rounded=1;html=1;whiteSpace=wrap;" parent="vdvvtg2PDydRFT4RrtTh-12" vertex="1">
          <mxGeometry x="520" y="30" width="90" height="20" as="geometry" />
        </mxCell>
        <mxCell id="vdvvtg2PDydRFT4RrtTh-28" value="Assar Pizza" style="shape=ext;rounded=1;html=1;whiteSpace=wrap;" parent="vdvvtg2PDydRFT4RrtTh-12" vertex="1">
          <mxGeometry x="670" y="30" width="100" height="20" as="geometry" />
        </mxCell>
        <mxCell id="vdvvtg2PDydRFT4RrtTh-30" value="Empacotar Pizza" style="shape=ext;rounded=1;html=1;whiteSpace=wrap;" parent="vdvvtg2PDydRFT4RrtTh-12" vertex="1">
          <mxGeometry x="810" y="30" width="130" height="20" as="geometry" />
        </mxCell>
        <mxCell id="Lkvbgb88_iQK6pIqarr5-8" value="" style="shape=mxgraph.bpmn.shape;html=1;verticalLabelPosition=bottom;labelBackgroundColor=#ffffff;verticalAlign=top;align=center;perimeter=ellipsePerimeter;outlineConnect=0;outline=standard;symbol=general;fillColor=#f8cecc;strokeColor=#b85450;" parent="vdvvtg2PDydRFT4RrtTh-12" vertex="1">
          <mxGeometry x="990" y="55" width="30" height="30" as="geometry" />
        </mxCell>
        <mxCell id="Lkvbgb88_iQK6pIqarr5-6" value="" style="shape=mxgraph.bpmn.shape;html=1;verticalLabelPosition=bottom;labelBackgroundColor=#ffffff;verticalAlign=top;align=center;perimeter=ellipsePerimeter;outlineConnect=0;outline=standard;symbol=general;fillColor=#d5e8d4;strokeColor=#82b366;" parent="vdvvtg2PDydRFT4RrtTh-12" vertex="1">
          <mxGeometry x="280" y="55" width="30" height="30" as="geometry" />
        </mxCell>
        <mxCell id="vdvvtg2PDydRFT4RrtTh-31" style="edgeStyle=orthogonalEdgeStyle;rounded=0;orthogonalLoop=1;jettySize=auto;html=1;" parent="vdvvtg2PDydRFT4RrtTh-12" source="vdvvtg2PDydRFT4RrtTh-28" target="vdvvtg2PDydRFT4RrtTh-30" edge="1">
          <mxGeometry relative="1" as="geometry" />
        </mxCell>
        <mxCell id="Lkvbgb88_iQK6pIqarr5-9" style="edgeStyle=orthogonalEdgeStyle;rounded=0;orthogonalLoop=1;jettySize=auto;html=1;entryX=0;entryY=0.5;entryDx=0;entryDy=0;" parent="vdvvtg2PDydRFT4RrtTh-12" source="vdvvtg2PDydRFT4RrtTh-30" target="Lkvbgb88_iQK6pIqarr5-8" edge="1">
          <mxGeometry relative="1" as="geometry" />
        </mxCell>
        <mxCell id="Lkvbgb88_iQK6pIqarr5-17" style="edgeStyle=orthogonalEdgeStyle;rounded=0;orthogonalLoop=1;jettySize=auto;html=1;entryX=0;entryY=0.5;entryDx=0;entryDy=0;" parent="vdvvtg2PDydRFT4RrtTh-12" source="Lkvbgb88_iQK6pIqarr5-16" target="vdvvtg2PDydRFT4RrtTh-25" edge="1">
          <mxGeometry relative="1" as="geometry" />
        </mxCell>
        <mxCell id="Lkvbgb88_iQK6pIqarr5-24" style="edgeStyle=orthogonalEdgeStyle;rounded=0;orthogonalLoop=1;jettySize=auto;html=1;entryX=0;entryY=0.75;entryDx=0;entryDy=0;" parent="vdvvtg2PDydRFT4RrtTh-12" source="Lkvbgb88_iQK6pIqarr5-16" target="Lkvbgb88_iQK6pIqarr5-22" edge="1">
          <mxGeometry relative="1" as="geometry" />
        </mxCell>
        <mxCell id="Lkvbgb88_iQK6pIqarr5-18" style="edgeStyle=orthogonalEdgeStyle;rounded=0;orthogonalLoop=1;jettySize=auto;html=1;" parent="vdvvtg2PDydRFT4RrtTh-12" source="vdvvtg2PDydRFT4RrtTh-25" target="vdvvtg2PDydRFT4RrtTh-28" edge="1">
          <mxGeometry relative="1" as="geometry" />
        </mxCell>
        <mxCell id="Lkvbgb88_iQK6pIqarr5-25" style="edgeStyle=orthogonalEdgeStyle;rounded=0;orthogonalLoop=1;jettySize=auto;html=1;" parent="vdvvtg2PDydRFT4RrtTh-12" source="Lkvbgb88_iQK6pIqarr5-22" target="vdvvtg2PDydRFT4RrtTh-25" edge="1">
          <mxGeometry relative="1" as="geometry" />
        </mxCell>
        <mxCell id="Lkvbgb88_iQK6pIqarr5-29" style="edgeStyle=orthogonalEdgeStyle;rounded=0;orthogonalLoop=1;jettySize=auto;html=1;entryX=0;entryY=0.75;entryDx=0;entryDy=0;" parent="vdvvtg2PDydRFT4RrtTh-12" source="vdvvtg2PDydRFT4RrtTh-77" target="Lkvbgb88_iQK6pIqarr5-27" edge="1">
          <mxGeometry relative="1" as="geometry" />
        </mxCell>
        <mxCell id="vdvvtg2PDydRFT4RrtTh-79" value="Processo de montar, assar e&amp;nbsp; empacotar a pizza, enviando para o ajudante de cozinheiro&amp;nbsp;&amp;nbsp;" style="text;html=1;strokeColor=none;fillColor=none;align=center;verticalAlign=middle;whiteSpace=wrap;rounded=0;" parent="vdvvtg2PDydRFT4RrtTh-12" vertex="1">
          <mxGeometry x="30" y="95" width="150" height="80" as="geometry" />
        </mxCell>
        <mxCell id="vdvvtg2PDydRFT4RrtTh-77" value="" style="html=1;shape=mxgraph.flowchart.annotation_2;align=left;labelPosition=right;rotation=-180;" parent="vdvvtg2PDydRFT4RrtTh-12" vertex="1">
          <mxGeometry x="160" y="90" width="50" height="100" as="geometry" />
        </mxCell>
        <mxCell id="Lkvbgb88_iQK6pIqarr5-22" value="Pedir mais ingredientes" style="html=1;whiteSpace=wrap;rounded=1;dropTarget=0;" parent="vdvvtg2PDydRFT4RrtTh-12" vertex="1">
          <mxGeometry x="520" y="110" width="170" height="50" as="geometry" />
        </mxCell>
        <mxCell id="Lkvbgb88_iQK6pIqarr5-23" value="" style="html=1;shape=plus;outlineConnect=0;" parent="Lkvbgb88_iQK6pIqarr5-22" vertex="1">
          <mxGeometry x="0.5" y="1" width="14" height="14" relative="1" as="geometry">
            <mxPoint x="-7" y="-14" as="offset" />
          </mxGeometry>
        </mxCell>
        <mxCell id="Lkvbgb88_iQK6pIqarr5-15" style="edgeStyle=orthogonalEdgeStyle;rounded=0;orthogonalLoop=1;jettySize=auto;html=1;" parent="vdvvtg2PDydRFT4RrtTh-12" source="Lkvbgb88_iQK6pIqarr5-6" target="Lkvbgb88_iQK6pIqarr5-16" edge="1">
          <mxGeometry relative="1" as="geometry">
            <mxPoint x="420" y="69.99999999999977" as="targetPoint" />
          </mxGeometry>
        </mxCell>
        <mxCell id="Lkvbgb88_iQK6pIqarr5-14" value="Tem ingredientes?" style="text;html=1;strokeColor=none;fillColor=none;align=center;verticalAlign=middle;whiteSpace=wrap;rounded=0;" parent="vdvvtg2PDydRFT4RrtTh-12" vertex="1">
          <mxGeometry x="350" y="30" width="120" height="20" as="geometry" />
        </mxCell>
        <mxCell id="Lkvbgb88_iQK6pIqarr5-16" value="" style="shape=mxgraph.bpmn.shape;html=1;verticalLabelPosition=bottom;labelBackgroundColor=#ffffff;verticalAlign=top;align=center;perimeter=rhombusPerimeter;background=gateway;outlineConnect=0;outline=none;symbol=exclusiveGw;fillColor=#fff2cc;strokeColor=#d6b656;" parent="vdvvtg2PDydRFT4RrtTh-12" vertex="1">
          <mxGeometry x="390" y="54.99999999999977" width="30" height="30" as="geometry" />
        </mxCell>
        <mxCell id="vdvvtg2PDydRFT4RrtTh-33" value="Ajudante Cozinheiro" style="swimlane;startSize=20;horizontal=0;" parent="vdvvtg2PDydRFT4RrtTh-10" vertex="1">
          <mxGeometry x="20" y="350" width="2210" height="160" as="geometry" />
        </mxCell>
        <mxCell id="Lkvbgb88_iQK6pIqarr5-1" style="edgeStyle=orthogonalEdgeStyle;rounded=0;orthogonalLoop=1;jettySize=auto;html=1;entryX=1;entryY=0.25;entryDx=0;entryDy=0;" parent="vdvvtg2PDydRFT4RrtTh-33" source="vdvvtg2PDydRFT4RrtTh-43" target="vdvvtg2PDydRFT4RrtTh-49" edge="1">
          <mxGeometry relative="1" as="geometry" />
        </mxCell>
        <mxCell id="vdvvtg2PDydRFT4RrtTh-43" value="Pegar bebida e/ou sobremesa" style="shape=ext;rounded=1;html=1;whiteSpace=wrap;" parent="vdvvtg2PDydRFT4RrtTh-33" vertex="1">
          <mxGeometry x="850" y="10" width="180" height="40" as="geometry" />
        </mxCell>
        <mxCell id="vdvvtg2PDydRFT4RrtTh-50" style="edgeStyle=orthogonalEdgeStyle;rounded=0;orthogonalLoop=1;jettySize=auto;html=1;" parent="vdvvtg2PDydRFT4RrtTh-33" source="vdvvtg2PDydRFT4RrtTh-36" target="vdvvtg2PDydRFT4RrtTh-43" edge="1">
          <mxGeometry relative="1" as="geometry" />
        </mxCell>
        <mxCell id="vdvvtg2PDydRFT4RrtTh-51" style="edgeStyle=orthogonalEdgeStyle;rounded=0;orthogonalLoop=1;jettySize=auto;html=1;entryX=0;entryY=0.75;entryDx=0;entryDy=0;" parent="vdvvtg2PDydRFT4RrtTh-33" source="vdvvtg2PDydRFT4RrtTh-36" target="vdvvtg2PDydRFT4RrtTh-49" edge="1">
          <mxGeometry relative="1" as="geometry">
            <Array as="points">
              <mxPoint x="685" y="90" />
              <mxPoint x="775" y="90" />
              <mxPoint x="775" y="120" />
            </Array>
          </mxGeometry>
        </mxCell>
        <mxCell id="vdvvtg2PDydRFT4RrtTh-36" value="" style="shape=mxgraph.bpmn.shape;html=1;verticalLabelPosition=bottom;labelBackgroundColor=#ffffff;verticalAlign=top;align=center;perimeter=rhombusPerimeter;background=gateway;outlineConnect=0;outline=none;symbol=exclusiveGw;fillColor=#fff2cc;strokeColor=#d6b656;" parent="vdvvtg2PDydRFT4RrtTh-33" vertex="1">
          <mxGeometry x="670" y="30" width="30" height="30" as="geometry" />
        </mxCell>
        <mxCell id="vdvvtg2PDydRFT4RrtTh-37" value="Tem adicionais?" style="text;html=1;strokeColor=none;fillColor=none;align=center;verticalAlign=middle;whiteSpace=wrap;rounded=0;" parent="vdvvtg2PDydRFT4RrtTh-33" vertex="1">
          <mxGeometry x="560" y="35" width="100" height="20" as="geometry" />
        </mxCell>
        <mxCell id="vdvvtg2PDydRFT4RrtTh-49" value="&lt;font style=&quot;vertical-align: inherit&quot;&gt;&lt;font style=&quot;vertical-align: inherit&quot;&gt;Colocar na bolsa&lt;/font&gt;&lt;/font&gt;" style="shape=ext;rounded=1;html=1;whiteSpace=wrap;" parent="vdvvtg2PDydRFT4RrtTh-33" vertex="1">
          <mxGeometry x="850" y="90" width="170" height="40" as="geometry" />
        </mxCell>
        <mxCell id="vdvvtg2PDydRFT4RrtTh-56" style="edgeStyle=orthogonalEdgeStyle;rounded=0;orthogonalLoop=1;jettySize=auto;html=1;" parent="vdvvtg2PDydRFT4RrtTh-10" source="vdvvtg2PDydRFT4RrtTh-49" target="vdvvtg2PDydRFT4RrtTh-53" edge="1">
          <mxGeometry relative="1" as="geometry">
            <Array as="points">
              <mxPoint x="955" y="540" />
              <mxPoint x="1270" y="540" />
              <mxPoint x="1270" y="595" />
            </Array>
          </mxGeometry>
        </mxCell>
        <mxCell id="Lkvbgb88_iQK6pIqarr5-30" style="edgeStyle=orthogonalEdgeStyle;rounded=0;orthogonalLoop=1;jettySize=auto;html=1;entryX=0;entryY=0.638;entryDx=0;entryDy=0;entryPerimeter=0;" parent="vdvvtg2PDydRFT4RrtTh-10" source="vdvvtg2PDydRFT4RrtTh-24" target="Lkvbgb88_iQK6pIqarr5-27" edge="1">
          <mxGeometry relative="1" as="geometry">
            <Array as="points">
              <mxPoint x="244" y="259" />
            </Array>
          </mxGeometry>
        </mxCell>
        <mxCell id="Lkvbgb88_iQK6pIqarr5-31" style="edgeStyle=orthogonalEdgeStyle;rounded=0;orthogonalLoop=1;jettySize=auto;html=1;" parent="vdvvtg2PDydRFT4RrtTh-10" source="Lkvbgb88_iQK6pIqarr5-27" target="vdvvtg2PDydRFT4RrtTh-36" edge="1">
          <mxGeometry relative="1" as="geometry">
            <Array as="points">
              <mxPoint x="670" y="340" />
              <mxPoint x="705" y="340" />
            </Array>
          </mxGeometry>
        </mxCell>
        <mxCell id="vdvvtg2PDydRFT4RrtTh-13" value="Entregador" style="swimlane;html=1;startSize=20;horizontal=0;" parent="vdvvtg2PDydRFT4RrtTh-10" vertex="1">
          <mxGeometry x="20" y="510" width="2210" height="270" as="geometry" />
        </mxCell>
        <mxCell id="Lkvbgb88_iQK6pIqarr5-39" value="" style="rounded=1;arcSize=10;dashed=1;strokeColor=#000000;fillColor=none;gradientColor=none;dashPattern=8 3 1 3;strokeWidth=2;" parent="vdvvtg2PDydRFT4RrtTh-13" vertex="1">
          <mxGeometry x="1000" y="20" width="550" height="130" as="geometry" />
        </mxCell>
        <mxCell id="Lkvbgb88_iQK6pIqarr5-34" value="Bolsa" style="shape=note;size=13;whiteSpace=wrap;html=1;" parent="vdvvtg2PDydRFT4RrtTh-13" vertex="1">
          <mxGeometry x="1030" y="45" width="50" height="60" as="geometry" />
        </mxCell>
        <mxCell id="Lkvbgb88_iQK6pIqarr5-33" value="Pedido" style="shape=note;size=14;whiteSpace=wrap;html=1;" parent="vdvvtg2PDydRFT4RrtTh-13" vertex="1">
          <mxGeometry x="1120" y="45" width="50" height="60" as="geometry" />
        </mxCell>
        <mxCell id="Lkvbgb88_iQK6pIqarr5-41" style="edgeStyle=orthogonalEdgeStyle;rounded=0;orthogonalLoop=1;jettySize=auto;html=1;entryX=0.522;entryY=1.008;entryDx=0;entryDy=0;entryPerimeter=0;" parent="vdvvtg2PDydRFT4RrtTh-13" source="Lkvbgb88_iQK6pIqarr5-40" target="Lkvbgb88_iQK6pIqarr5-39" edge="1">
          <mxGeometry relative="1" as="geometry">
            <Array as="points">
              <mxPoint x="1180" y="205" />
              <mxPoint x="1180" y="160" />
              <mxPoint x="1287" y="160" />
            </Array>
          </mxGeometry>
        </mxCell>
        <mxCell id="Lkvbgb88_iQK6pIqarr5-49" style="edgeStyle=orthogonalEdgeStyle;rounded=0;orthogonalLoop=1;jettySize=auto;html=1;" parent="vdvvtg2PDydRFT4RrtTh-13" source="vdvvtg2PDydRFT4RrtTh-53" target="fWvLZrzhNdNzh6QplU10-1" edge="1">
          <mxGeometry relative="1" as="geometry">
            <mxPoint x="1590" y="85" as="targetPoint" />
          </mxGeometry>
        </mxCell>
        <mxCell id="vdvvtg2PDydRFT4RrtTh-53" value="Receber Bolsa e Pedido" style="shape=ext;rounded=1;html=1;whiteSpace=wrap;" parent="vdvvtg2PDydRFT4RrtTh-13" vertex="1">
          <mxGeometry x="1280" y="70" width="240" height="30" as="geometry" />
        </mxCell>
        <mxCell id="Lkvbgb88_iQK6pIqarr5-50" style="edgeStyle=orthogonalEdgeStyle;rounded=0;orthogonalLoop=1;jettySize=auto;html=1;" parent="vdvvtg2PDydRFT4RrtTh-13" target="fWvLZrzhNdNzh6QplU10-2" edge="1">
          <mxGeometry relative="1" as="geometry">
            <mxPoint x="1750" y="85" as="sourcePoint" />
            <mxPoint x="1840" y="85" as="targetPoint" />
          </mxGeometry>
        </mxCell>
        <mxCell id="Lkvbgb88_iQK6pIqarr5-45" value="" style="startArrow=oval;startFill=0;startSize=7;endArrow=block;endFill=0;endSize=10;dashed=1;html=1;exitX=0.5;exitY=0;exitDx=0;exitDy=0;" parent="vdvvtg2PDydRFT4RrtTh-13" source="fWvLZrzhNdNzh6QplU10-2" edge="1">
          <mxGeometry width="100" relative="1" as="geometry">
            <mxPoint x="1867.5" y="90" as="sourcePoint" />
            <mxPoint x="1845" y="-620" as="targetPoint" />
          </mxGeometry>
        </mxCell>
        <mxCell id="fWvLZrzhNdNzh6QplU10-2" value="" style="shape=mxgraph.bpmn.shape;html=1;verticalLabelPosition=bottom;labelBackgroundColor=#ffffff;verticalAlign=top;align=center;perimeter=ellipsePerimeter;outlineConnect=0;outline=end;symbol=general;fillColor=#f8cecc;strokeColor=#b85450;" vertex="1" parent="vdvvtg2PDydRFT4RrtTh-13">
          <mxGeometry x="1830" y="60" width="30" height="30" as="geometry" />
        </mxCell>
        <mxCell id="fWvLZrzhNdNzh6QplU10-1" value="Fazer entrega" style="shape=ext;rounded=1;html=1;whiteSpace=wrap;" vertex="1" parent="vdvvtg2PDydRFT4RrtTh-13">
          <mxGeometry x="1630" y="62.5" width="120" height="45" as="geometry" />
        </mxCell>
        <mxCell id="Lkvbgb88_iQK6pIqarr5-42" value="É recebido a bolsa contendo a pizza (e agregados) + pedido impresso do cliente" style="text;html=1;strokeColor=none;fillColor=none;align=center;verticalAlign=middle;whiteSpace=wrap;rounded=0;" parent="vdvvtg2PDydRFT4RrtTh-13" vertex="1">
          <mxGeometry x="990" y="175" width="139" height="60" as="geometry" />
        </mxCell>
        <mxCell id="Lkvbgb88_iQK6pIqarr5-40" value="" style="html=1;shape=mxgraph.flowchart.annotation_2;align=left;labelPosition=right;rotation=-180;" parent="vdvvtg2PDydRFT4RrtTh-13" vertex="1">
          <mxGeometry x="1110" y="170" width="50" height="70" as="geometry" />
        </mxCell>
        <mxCell id="Lkvbgb88_iQK6pIqarr5-37" value="" style="endArrow=none;dashed=1;html=1;dashPattern=1 3;strokeWidth=2;exitX=0;exitY=0;exitDx=43.5;exitDy=6.5;exitPerimeter=0;" parent="1" source="Lkvbgb88_iQK6pIqarr5-34" edge="1">
          <mxGeometry width="50" height="50" relative="1" as="geometry">
            <mxPoint x="1440" y="890" as="sourcePoint" />
            <mxPoint x="1380" y="810" as="targetPoint" />
          </mxGeometry>
        </mxCell>
        <mxCell id="Lkvbgb88_iQK6pIqarr5-38" value="" style="endArrow=none;dashed=1;html=1;dashPattern=1 3;strokeWidth=2;exitX=1;exitY=0.117;exitDx=0;exitDy=0;exitPerimeter=0;" parent="1" source="Lkvbgb88_iQK6pIqarr5-33" edge="1">
          <mxGeometry width="50" height="50" relative="1" as="geometry">
            <mxPoint x="1440" y="890" as="sourcePoint" />
            <mxPoint x="1480" y="810" as="targetPoint" />
          </mxGeometry>
        </mxCell>
        <mxCell id="Lkvbgb88_iQK6pIqarr5-46" value="Pedido é entregue" style="text;html=1;strokeColor=none;fillColor=none;align=center;verticalAlign=middle;whiteSpace=wrap;rounded=0;" parent="1" vertex="1">
          <mxGeometry x="2110" y="190" width="180" height="60" as="geometry" />
        </mxCell>
      </root>
    </mxGraphModel>
  </diagram>
</mxfile>
